# xmcd
#
# Track frame offsets:
#	150
#	16127
#	29570
#	41577
#	54475
#	68570
#	81507
#	91105
#	106160
#	115087
#	128832
#	141382
#	154655
#	171062
#	181925
#	193215
#	200687
#	214697
#	227302
#	240137
#	250025
#	259195
#	269887
#	281520
#	292645
#	302855
#	312052
#	325467
#	337585
#
# Disc length: 4736 seconds
#
# Revision: 1
# Processed by: cddbd v1.5.1PL0 Copyright (c) Steve Scherf et al.
# Submitted via: CDex 1.50Beta5
#
DISCID=90127e1d
DTITLE=さまざまなアーティスト - Beethoven
DYEAR=1900
DGENRE=Classical
TTITLE0=苦悩の階段を上り詰める迷える人々
TTITLE1=2
TTITLE2=3
TTITLE3=4
TTITLE4=5
TTITLE5=6
TTITLE6=7
TTITLE7=8
TTITLE8=9
TTITLE9=10
TTITLE10=11
TTITLE11=12
TTITLE12=13
TTITLE13=14
TTITLE14=15
TTITLE15=16
TTITLE16=17
TTITLE17=18
TTITLE18=19
TTITLE19=20
TTITLE20=21
TTITLE21=22
TTITLE22=23
TTITLE23=24
TTITLE24=25
TTITLE25=26
TTITLE26=27
TTITLE27=28
TTITLE28=29
EXTD=
EXTT0=
EXTT1=
EXTT2=
EXTT3=
EXTT4=
EXTT5=
EXTT6=
EXTT7=
EXTT8=
EXTT9=
EXTT10=
EXTT11=
EXTT12=
EXTT13=
EXTT14=
EXTT15=
EXTT16=
EXTT17=
EXTT18=
EXTT19=
EXTT20=
EXTT21=
EXTT22=
EXTT23=
EXTT24=
EXTT25=
EXTT26=
EXTT27=
EXTT28=
PLAYORDER=
